<svg xmlns="http://www.w3.org/2000/svg" width="164.7" height="35" viewBox="0 0 164.7 35"><rect class="svg__rect" x="0" y="0" width="81.63" height="35" fill="#1EC94E"/><rect class="svg__rect" x="79.63" y="0" width="85.07" height="35" fill="#1FAD2C"/><path class="svg__text" d="M13.78 19.42L13.78 19.42L15.27 19.42Q15.27 20.15 15.75 20.55Q16.23 20.95 17.12 20.95L17.12 20.95Q17.90 20.95 18.29 20.63Q18.68 20.32 18.68 19.80L18.68 19.80Q18.68 19.24 18.28 18.94Q17.89 18.63 16.85 18.32Q15.82 18.01 15.21 17.63L15.21 17.63Q14.05 16.90 14.05 15.72L14.05 15.72Q14.05 14.69 14.89 14.02Q15.73 13.35 17.07 13.35L17.07 13.35Q17.96 13.35 18.66 13.68Q19.36 14.01 19.75 14.61Q20.15 15.22 20.15 15.96L20.15 15.96L18.68 15.96Q18.68 15.29 18.26 14.91Q17.84 14.54 17.06 14.54L17.06 14.54Q16.33 14.54 15.93 14.85Q15.53 15.16 15.53 15.71L15.53 15.71Q15.53 16.18 15.96 16.50Q16.40 16.81 17.39 17.10Q18.39 17.40 18.99 17.78Q19.60 18.16 19.88 18.65Q20.16 19.13 20.16 19.79L20.16 19.79Q20.16 20.86 19.34 21.49Q18.52 22.12 17.12 22.12L17.12 22.12Q16.20 22.12 15.42 21.77Q14.64 21.43 14.21 20.83Q13.78 20.22 13.78 19.42ZM26.01 22L24.54 22L24.54 13.47L26.01 13.47L26.01 22ZM36.40 22L30.82 22L30.82 13.47L36.36 13.47L36.36 14.66L32.31 14.66L32.31 17.02L35.81 17.02L35.81 18.19L32.31 18.19L32.31 20.82L36.40 20.82L36.40 22ZM40.16 19.42L40.16 19.42L41.64 19.42Q41.64 20.15 42.13 20.55Q42.61 20.95 43.50 20.95L43.50 20.95Q44.28 20.95 44.67 20.63Q45.06 20.32 45.06 19.80L45.06 19.80Q45.06 19.24 44.66 18.94Q44.26 18.63 43.23 18.32Q42.20 18.01 41.59 17.63L41.59 17.63Q40.43 16.90 40.43 15.72L40.43 15.72Q40.43 14.69 41.27 14.02Q42.11 13.35 43.45 13.35L43.45 13.35Q44.34 13.35 45.04 13.68Q45.73 14.01 46.13 14.61Q46.53 15.22 46.53 15.96L46.53 15.96L45.06 15.96Q45.06 15.29 44.64 14.91Q44.22 14.54 43.44 14.54L43.44 14.54Q42.71 14.54 42.31 14.85Q41.91 15.16 41.91 15.71L41.91 15.71Q41.91 16.18 42.34 16.50Q42.78 16.81 43.77 17.10Q44.77 17.40 45.37 17.78Q45.98 18.16 46.26 18.65Q46.54 19.13 46.54 19.79L46.54 19.79Q46.54 20.86 45.72 21.49Q44.90 22.12 43.50 22.12L43.50 22.12Q42.58 22.12 41.80 21.77Q41.02 21.43 40.59 20.83Q40.16 20.22 40.16 19.42ZM52.51 14.66L49.87 14.66L49.87 13.47L56.64 13.47L56.64 14.66L53.98 14.66L53.98 22L52.51 22L52.51 14.66ZM61.17 22L59.63 22L62.86 13.47L64.19 13.47L67.41 22L65.87 22L65.17 20.01L61.87 20.01L61.17 22ZM63.52 15.28L62.28 18.82L64.75 18.82L63.52 15.28Z" fill="#FFFFFF"/><path class="svg__text" d="M96.20 22L93.82 22L93.82 13.60L97.66 13.60Q98.80 13.60 99.64 13.98Q100.48 14.35 100.94 15.06Q101.39 15.76 101.39 16.71L101.39 16.71Q101.39 17.62 100.97 18.30Q100.54 18.98 99.75 19.36L99.75 19.36L101.56 22L99.02 22L97.49 19.77L96.20 19.77L96.20 22ZM96.20 15.47L96.20 17.93L97.52 17.93Q98.25 17.93 98.62 17.61Q98.99 17.29 98.99 16.71L98.99 16.71Q98.99 16.12 98.62 15.79Q98.25 15.47 97.52 15.47L97.52 15.47L96.20 15.47ZM105.75 17.80L105.75 17.80Q105.75 16.55 106.36 15.55Q106.96 14.56 108.02 14.00Q109.09 13.43 110.42 13.43L110.42 13.43Q111.75 13.43 112.81 14.00Q113.87 14.56 114.48 15.55Q115.09 16.55 115.09 17.80L115.09 17.80Q115.09 19.05 114.48 20.04Q113.87 21.04 112.81 21.60Q111.75 22.17 110.42 22.17L110.42 22.17Q109.09 22.17 108.02 21.60Q106.96 21.04 106.36 20.04Q105.75 19.05 105.75 17.80ZM108.15 17.80L108.15 17.80Q108.15 18.51 108.45 19.05Q108.75 19.60 109.27 19.90Q109.78 20.20 110.42 20.20L110.42 20.20Q111.06 20.20 111.57 19.90Q112.09 19.60 112.39 19.05Q112.69 18.51 112.69 17.80L112.69 17.80Q112.69 17.09 112.39 16.54Q112.09 16 111.57 15.70Q111.06 15.40 110.42 15.40L110.42 15.40Q109.78 15.40 109.27 15.70Q108.75 16 108.45 16.54Q108.15 17.09 108.15 17.80ZM124.36 22L119.82 22L119.82 13.60L124.12 13.60Q125.72 13.60 126.56 14.19Q127.40 14.79 127.40 15.79L127.40 15.79Q127.40 16.39 127.11 16.87Q126.81 17.34 126.27 17.62L126.27 17.62Q126.99 17.87 127.40 18.41Q127.81 18.94 127.81 19.70L127.81 19.70Q127.81 20.80 126.92 21.40Q126.03 22 124.36 22L124.36 22ZM122.17 18.58L122.17 20.28L124.16 20.28Q125.41 20.28 125.41 19.43L125.41 19.43Q125.41 18.58 124.16 18.58L124.16 18.58L122.17 18.58ZM122.17 15.31L122.17 16.94L123.80 16.94Q125.00 16.94 125.00 16.12L125.00 16.12Q125.00 15.31 123.80 15.31L123.80 15.31L122.17 15.31ZM132.10 17.80L132.10 17.80Q132.10 16.55 132.70 15.55Q133.30 14.56 134.37 14.00Q135.43 13.43 136.76 13.43L136.76 13.43Q138.09 13.43 139.15 14.00Q140.22 14.56 140.82 15.55Q141.43 16.55 141.43 17.80L141.43 17.80Q141.43 19.05 140.82 20.04Q140.22 21.04 139.16 21.60Q138.10 22.17 136.76 22.17L136.76 22.17Q135.43 22.17 134.37 21.60Q133.30 21.04 132.70 20.04Q132.10 19.05 132.10 17.80ZM134.49 17.80L134.49 17.80Q134.49 18.51 134.80 19.05Q135.10 19.60 135.61 19.90Q136.13 20.20 136.76 20.20L136.76 20.20Q137.40 20.20 137.92 19.90Q138.43 19.60 138.73 19.05Q139.03 18.51 139.03 17.80L139.03 17.80Q139.03 17.09 138.73 16.54Q138.43 16 137.92 15.70Q137.40 15.40 136.76 15.40L136.76 15.40Q136.12 15.40 135.61 15.70Q135.10 16 134.80 16.54Q134.49 17.09 134.49 17.80ZM147.95 15.48L145.37 15.48L145.37 13.60L152.89 13.60L152.89 15.48L150.33 15.48L150.33 22L147.95 22L147.95 15.48Z" fill="#FFFFFF" x="92.63"/></svg>